Coordinates
version=1
nRows=10
nColumns=40
inDegrees=yes

Units are S.I. units (second, meters, Newtons, ...)
Angles are in degrees.

endheader
time	pelvis_tilt	pelvis_list	pelvis_rotation	pelvis_tx	pelvis_ty	pelvis_tz	hip_flexion_r	hip_adduction_r	hip_rotation_r	knee_angle_r	knee_angle_r_beta	ankle_angle_r	subtalar_angle_r	mtp_angle_r	hip_flexion_l	hip_adduction_l	hip_rotation_l	knee_angle_l	knee_angle_l_beta	ankle_angle_l	subtalar_angle_l	mtp_angle_l	lumbar_extension	lumbar_bending	lumbar_rotation	arm_flex_r	arm_add_r	arm_rot_r	elbow_flex_r	pro_sup_r	wrist_flex_r	wrist_dev_r	arm_flex_l	arm_add_l	arm_rot_l	elbow_flex_l	pro_sup_l	wrist_flex_l	wrist_dev_l
     21.13500000	     -2.94236882	     -6.08951587	     -2.84494160	      1.10013598	      0.93134285	      0.46605979	     14.35824083	      3.33968626	     -9.65104693	     14.68814431	     14.68814431	      5.09819010	      0.99880110	     -5.48417346	      7.60128124	    -12.87946211	     -8.65256453	     35.36063663	     35.36063663	     13.83997373	    -14.02477830	     -5.72618371	     -9.42847732	      6.82437800	      0.91458694	      2.42552682	    -14.30486359	     -4.27205648	     41.70482115	     45.50242039	      0.00000000	      0.00000000	     15.23741720	    -12.65214096	     -3.17883639	     52.00249020	     47.15510775	      0.00000000	      0.00000000
     21.14857143	     -2.63004283	     -6.26038273	     -2.60104419	      1.10118449	      0.93165876	      0.46925086	     13.62292738	      3.66207651	     -9.95081765	     14.83013629	     14.83013629	      5.58529556	      1.02163739	     -5.60074795	      9.08003013	    -13.70017619	     -7.86741996	     39.11951923	     39.11951923	     12.25904466	    -14.90698261	     -6.54284576	     -9.58943321	      6.86306447	      1.17677535	      3.86681178	    -14.67829671	     -4.22642122	     42.89482560	     45.46538299	      0.00000000	      0.00000000	     14.25302461	    -12.43185787	     -3.19542165	     50.92994413	     47.13135608	      0.00000000	      0.00000000
     21.16214286	     -2.42608552	     -6.27930326	     -2.33476662	      1.10191945	      0.93153168	      0.47224610	     13.28450361	      3.75879517	    -10.20599038	     15.48470151	     15.48470151	      6.33984440	      1.01470522	     -5.46945061	     10.73751992	    -14.33143843	     -7.04320135	     42.71048100	     42.71048100	      9.18578769	    -16.46665248	     -9.96556986	     -9.60184253	      6.76654391	      1.16427189	      4.45153318	    -15.52121486	     -2.72336135	     47.27607721	     45.24177912	      0.00000000	      0.00000000	     13.93545027	    -11.98598533	     -4.19901298	     47.24459117	     47.15770549	      0.00000000	      0.00000000
     21.17571429	     -2.22980702	     -6.40127834	     -2.03648745	      1.10245452	      0.93133908	      0.47510131	     12.81610892	      4.00032232	    -10.43906605	     15.84487037	     15.84487037	      6.93641613	      0.93849166	     -5.35792374	     12.65647555	    -15.04847945	     -6.08058851	     46.64638154	     46.64638154	      6.84940010	    -17.27839938	    -10.91664828	     -9.66220639	      6.79653153	      1.38647225	      5.37565421	    -16.30044329	     -1.86661557	     50.34415908	     45.11367649	      0.00000000	      0.00000000	     13.33317963	    -11.63152183	     -4.69184899	     44.95981647	     47.14885555	      0.00000000	      0.00000000
     21.18928571	     -1.97988519	     -6.56536631	     -1.70838760	      1.10277867	      0.93111277	      0.47780388	     12.28119987	      4.28593162	    -10.68989927	     16.15362104	     16.15362104	      7.43797340	      0.82747655	     -5.51154880	     14.63629064	    -15.73283325	     -4.99801356	     50.59127232	     50.59127232	      4.70425374	    -17.74879958	    -10.74890811	     -9.80209126	      6.83672258	      1.43820322	      7.04971153	    -16.66195599	     -1.98212624	     51.73966226	     45.08069678	      0.00000000	      0.00000000	     12.23868014	    -11.55645302	     -4.69921845	     43.81851046	     47.12239384	      0.00000000	      0.00000000
     21.20285714	     -1.94520107	     -6.60035085	     -1.33357530	      1.10273185	      0.93048341	      0.48020110	     12.12123158	      4.40119971	    -10.90112032	     16.67379795	     16.67379795	      7.98997323	      0.54551233	     -5.61550536	     16.95932269	    -16.14941808	     -3.80493600	     54.44386669	     54.44386669	      2.71513591	    -18.10399283	     -9.76001795	     -9.67169666	      6.79629011	      0.93254286	      8.65037844	    -16.86438919	     -1.77164591	     54.42688247	     44.98956439	      0.00000000	      0.00000000	     11.09095816	    -11.69608838	     -4.88090266	     41.78349827	     47.10389023	      0.00000000	      0.00000000
     21.21642857	     -1.76818659	     -6.57464253	     -1.01170124	      1.10246743	      0.93017139	      0.48231184	     11.82474999	      4.43370820	    -11.07386199	     17.21545024	     17.21545024	      8.71315903	      0.44940950	     -5.26446606	     19.16759454	    -16.25238990	     -2.48979795	     58.20722886	     58.20722886	      2.11138039	    -17.99163955	     -4.97786811	     -9.87413424	      6.69483712	      1.61278883	      8.66160887	    -18.49416597	     -0.21319868	     60.20165653	     44.75821990	      0.00000000	      0.00000000	     11.40060080	    -10.97605012	     -5.90546544	     37.92969878	     47.15656420	      0.00000000	      0.00000000
     21.23000000	     -1.71323147	     -6.56337665	     -0.65051308	      1.10203328	      0.92980272	      0.48433056	     11.58388561	      4.50833102	    -11.24498255	     17.55866170	     17.55866170	      9.18647522	      0.19245206	     -5.31089970	     21.32203751	    -16.42915771	     -1.44768959	     61.27613668	     61.27613668	      0.48493029	    -18.22127152	     -3.29527494	     -9.88902242	      6.59489320	      1.21258268	     10.48107044	    -18.59540312	     -0.48089371	     62.69114351	     44.70469309	      0.00000000	      0.00000000	     10.22396284	    -11.06644351	     -6.08297028	     36.24879959	     47.13917455	      0.00000000	      0.00000000
     21.24357143	     -1.64754794	     -6.66714276	     -0.26223194	      1.10149311	      0.92954889	      0.48618802	     11.23124939	      4.71678746	    -11.45851547	     17.69330014	     17.69330014	      9.61198384	      0.03541464	     -5.34922270	     23.37425093	    -16.66596323	     -0.43538960	     63.87917136	     63.87917136	     -0.79443125	    -18.36896266	     -1.76776909	     -9.93449487	      6.61010382	      1.16532159	     12.13281794	    -18.90385539	     -0.63318621	     64.85808407	     44.65147226	      0.00000000	      0.00000000	      9.15332736	    -10.98945685	     -6.17816866	     34.93364645	     47.12330327	      0.00000000	      0.00000000
     21.25714286	     -1.59887106	     -6.50649928	      0.04897305	      1.10072068	      0.92952860	      0.48764777	     10.94246030	      4.60810225	    -11.60360812	     17.89644294	     17.89644294	     10.13471635	     -0.01356468	     -5.03373833	     25.42789226	    -16.41177787	      0.44388667	     66.26830204	     66.26830204	      0.12179148	    -18.11939663	      4.81092371	    -10.07705909	      6.42092748	      1.74229423	     12.42027789	    -20.21887831	     -0.11498342	     70.42525297	     44.49295231	      0.00000000	      0.00000000	      9.16322588	    -10.51181382	     -6.88561833	     31.83714357	     47.16990554	      0.00000000	      0.00000000
